# xmcd
#
# Track frame offsets: 
#        150
#        33898
#        81532
#        105683
#        159780
#
# Disc length: 2415 seconds
#
# Revision: 0
# Processed by: cddbd v1.5.2PL0 Copyright (c) Steve Scherf et al.
# Submitted via: ExactAudioCopy v1.2
#
DISCID=30096d05
DTITLE=SaRon Crenshaw - Drivin' [CD1]
DYEAR=2017
DGENRE=Blues
TTITLE0=Drivin'
TTITLE1=World of Misery
TTITLE2=Been a Long Time
TTITLE3=Pilot Light
TTITLE4=Footprints in the Snow
EXTD=
EXTT0=
EXTT1=
EXTT2=
EXTT3=
EXTT4=
PLAYORDER=
